<mxfile host="Electron" modified="2021-04-02T14:15:45.359Z" agent="5.0 (Windows NT 10.0; WOW64) AppleWebKit/537.36 (KHTML, like Gecko) draw.io/14.4.2 Chrome/87.0.4280.141 Electron/11.3.0 Safari/537.36" etag="TOV0rp770Xz6HMcHIeOw" compressed="false" version="14.4.2" type="device">
  <diagram id="rLqPVmNFsJ054zF-cpdd" name="Seite-1">
    <mxGraphModel dx="769" dy="484" grid="1" gridSize="10" guides="1" tooltips="1" connect="1" arrows="1" fold="1" page="1" pageScale="1" pageWidth="827" pageHeight="1169" math="0" shadow="0">
      <root>
        <mxCell id="0" />
        <mxCell id="1" parent="0" />
        <mxCell id="CPOEglsgOs3hnRmzmHqU-1" value="Software" style="rounded=1;whiteSpace=wrap;html=1;fillColor=#e1d5e7;strokeColor=#9673a6;" parent="1" vertex="1">
          <mxGeometry x="320" y="40" width="160" height="40" as="geometry" />
        </mxCell>
        <mxCell id="CPOEglsgOs3hnRmzmHqU-2" value="Systemsoftware /&lt;br&gt;Firmware" style="rounded=1;whiteSpace=wrap;html=1;dashed=1;fillColor=#f5f5f5;strokeColor=#666666;fontColor=#333333;" parent="1" vertex="1">
          <mxGeometry x="120" y="40" width="160" height="40" as="geometry" />
        </mxCell>
        <mxCell id="CPOEglsgOs3hnRmzmHqU-3" value="Anwendungssoftware" style="rounded=1;whiteSpace=wrap;html=1;fillColor=#e1d5e7;strokeColor=#9673a6;" parent="1" vertex="1">
          <mxGeometry x="320" y="120" width="160" height="40" as="geometry" />
        </mxCell>
        <mxCell id="CPOEglsgOs3hnRmzmHqU-7" value="" style="endArrow=none;html=1;entryX=0.5;entryY=1;entryDx=0;entryDy=0;exitX=0.5;exitY=0;exitDx=0;exitDy=0;fillColor=#e1d5e7;strokeColor=#9673a6;" parent="1" source="CPOEglsgOs3hnRmzmHqU-3" target="CPOEglsgOs3hnRmzmHqU-1" edge="1">
          <mxGeometry width="50" height="50" relative="1" as="geometry">
            <mxPoint x="400" y="310" as="sourcePoint" />
            <mxPoint x="450" y="260" as="targetPoint" />
          </mxGeometry>
        </mxCell>
        <mxCell id="CPOEglsgOs3hnRmzmHqU-8" value="Standardsoftware" style="rounded=1;whiteSpace=wrap;html=1;fillColor=#ffe6cc;strokeColor=#d79b00;" parent="1" vertex="1">
          <mxGeometry x="520" y="200" width="160" height="40" as="geometry" />
        </mxCell>
        <mxCell id="CPOEglsgOs3hnRmzmHqU-9" value="Individualsoftware" style="rounded=1;whiteSpace=wrap;html=1;fillColor=#ffe6cc;strokeColor=#d79b00;" parent="1" vertex="1">
          <mxGeometry x="120" y="200" width="160" height="40" as="geometry" />
        </mxCell>
        <mxCell id="CPOEglsgOs3hnRmzmHqU-10" value="" style="endArrow=none;html=1;entryX=0;entryY=0.75;entryDx=0;entryDy=0;exitX=0.75;exitY=0;exitDx=0;exitDy=0;fillColor=#e1d5e7;strokeColor=#9673a6;" parent="1" source="CPOEglsgOs3hnRmzmHqU-9" target="CPOEglsgOs3hnRmzmHqU-3" edge="1">
          <mxGeometry width="50" height="50" relative="1" as="geometry">
            <mxPoint x="340" y="380" as="sourcePoint" />
            <mxPoint x="390" y="330" as="targetPoint" />
          </mxGeometry>
        </mxCell>
        <mxCell id="CPOEglsgOs3hnRmzmHqU-11" value="" style="endArrow=none;html=1;entryX=1;entryY=0.75;entryDx=0;entryDy=0;exitX=0.25;exitY=0;exitDx=0;exitDy=0;fillColor=#e1d5e7;strokeColor=#9673a6;" parent="1" source="CPOEglsgOs3hnRmzmHqU-8" target="CPOEglsgOs3hnRmzmHqU-3" edge="1">
          <mxGeometry width="50" height="50" relative="1" as="geometry">
            <mxPoint x="500" y="370" as="sourcePoint" />
            <mxPoint x="550" y="320" as="targetPoint" />
          </mxGeometry>
        </mxCell>
        <mxCell id="CPOEglsgOs3hnRmzmHqU-12" value="GeschÃ¤ftsanwenungen" style="rounded=1;whiteSpace=wrap;html=1;fillColor=#dae8fc;strokeColor=#6c8ebf;" parent="1" vertex="1">
          <mxGeometry x="520" y="360" width="160" height="40" as="geometry" />
        </mxCell>
        <mxCell id="CPOEglsgOs3hnRmzmHqU-13" value="Gemischte Software" style="rounded=1;whiteSpace=wrap;html=1;fillColor=#dae8fc;strokeColor=#6c8ebf;" parent="1" vertex="1">
          <mxGeometry x="610" y="260" width="160" height="40" as="geometry" />
        </mxCell>
        <mxCell id="CPOEglsgOs3hnRmzmHqU-14" value="Technische Software" style="rounded=1;whiteSpace=wrap;html=1;fillColor=#dae8fc;strokeColor=#6c8ebf;" parent="1" vertex="1">
          <mxGeometry x="430" y="260" width="160" height="40" as="geometry" />
        </mxCell>
        <mxCell id="CPOEglsgOs3hnRmzmHqU-15" value="" style="endArrow=none;html=1;entryX=0.25;entryY=1;entryDx=0;entryDy=0;exitX=0.75;exitY=0;exitDx=0;exitDy=0;fillColor=#ffe6cc;strokeColor=#d79b00;" parent="1" source="CPOEglsgOs3hnRmzmHqU-14" target="CPOEglsgOs3hnRmzmHqU-8" edge="1">
          <mxGeometry width="50" height="50" relative="1" as="geometry">
            <mxPoint x="400" y="410" as="sourcePoint" />
            <mxPoint x="450" y="360" as="targetPoint" />
          </mxGeometry>
        </mxCell>
        <mxCell id="CPOEglsgOs3hnRmzmHqU-16" value="" style="endArrow=none;html=1;exitX=0.25;exitY=0;exitDx=0;exitDy=0;entryX=0.75;entryY=1;entryDx=0;entryDy=0;fillColor=#ffe6cc;strokeColor=#d79b00;" parent="1" source="CPOEglsgOs3hnRmzmHqU-13" target="CPOEglsgOs3hnRmzmHqU-8" edge="1">
          <mxGeometry width="50" height="50" relative="1" as="geometry">
            <mxPoint x="740" y="240" as="sourcePoint" />
            <mxPoint x="790" y="190" as="targetPoint" />
          </mxGeometry>
        </mxCell>
        <mxCell id="CPOEglsgOs3hnRmzmHqU-17" value="" style="endArrow=none;html=1;entryX=0.5;entryY=1;entryDx=0;entryDy=0;exitX=0.5;exitY=0;exitDx=0;exitDy=0;fillColor=#ffe6cc;strokeColor=#d79b00;" parent="1" source="CPOEglsgOs3hnRmzmHqU-12" target="CPOEglsgOs3hnRmzmHqU-8" edge="1">
          <mxGeometry width="50" height="50" relative="1" as="geometry">
            <mxPoint x="370" y="430" as="sourcePoint" />
            <mxPoint x="420" y="380" as="targetPoint" />
          </mxGeometry>
        </mxCell>
        <mxCell id="CPOEglsgOs3hnRmzmHqU-18" value="Eigenentwicklung" style="rounded=1;whiteSpace=wrap;html=1;fillColor=#fff2cc;strokeColor=#d6b656;" parent="1" vertex="1">
          <mxGeometry x="30" y="260" width="160" height="40" as="geometry" />
        </mxCell>
        <mxCell id="CPOEglsgOs3hnRmzmHqU-19" value="Fremdentwicklung" style="rounded=1;whiteSpace=wrap;html=1;fillColor=#fff2cc;strokeColor=#d6b656;" parent="1" vertex="1">
          <mxGeometry x="210" y="260" width="160" height="40" as="geometry" />
        </mxCell>
        <mxCell id="CPOEglsgOs3hnRmzmHqU-20" value="" style="endArrow=none;html=1;entryX=0.25;entryY=1;entryDx=0;entryDy=0;exitX=0.75;exitY=0;exitDx=0;exitDy=0;fillColor=#ffe6cc;strokeColor=#d79b00;" parent="1" source="CPOEglsgOs3hnRmzmHqU-18" target="CPOEglsgOs3hnRmzmHqU-9" edge="1">
          <mxGeometry width="50" height="50" relative="1" as="geometry">
            <mxPoint x="180" y="410" as="sourcePoint" />
            <mxPoint x="230" y="360" as="targetPoint" />
          </mxGeometry>
        </mxCell>
        <mxCell id="CPOEglsgOs3hnRmzmHqU-21" value="" style="endArrow=none;html=1;entryX=0.75;entryY=1;entryDx=0;entryDy=0;exitX=0.25;exitY=0;exitDx=0;exitDy=0;fillColor=#ffe6cc;strokeColor=#d79b00;" parent="1" source="CPOEglsgOs3hnRmzmHqU-19" target="CPOEglsgOs3hnRmzmHqU-9" edge="1">
          <mxGeometry width="50" height="50" relative="1" as="geometry">
            <mxPoint x="280" y="380" as="sourcePoint" />
            <mxPoint x="330" y="330" as="targetPoint" />
          </mxGeometry>
        </mxCell>
        <mxCell id="CPOEglsgOs3hnRmzmHqU-22" value="" style="endArrow=none;html=1;entryX=0;entryY=0.5;entryDx=0;entryDy=0;exitX=1;exitY=0.5;exitDx=0;exitDy=0;dashed=1;fillColor=#f5f5f5;strokeColor=#666666;" parent="1" source="CPOEglsgOs3hnRmzmHqU-2" target="CPOEglsgOs3hnRmzmHqU-1" edge="1">
          <mxGeometry width="50" height="50" relative="1" as="geometry">
            <mxPoint x="200" y="170" as="sourcePoint" />
            <mxPoint x="250" y="120" as="targetPoint" />
          </mxGeometry>
        </mxCell>
        <mxCell id="CPOEglsgOs3hnRmzmHqU-23" value="Spezifische Software" style="rounded=1;whiteSpace=wrap;html=1;fillColor=#d5e8d4;strokeColor=#82b366;" parent="1" vertex="1">
          <mxGeometry x="430" y="420" width="160" height="40" as="geometry" />
        </mxCell>
        <mxCell id="CPOEglsgOs3hnRmzmHqU-24" value="Funktionale Software" style="rounded=1;whiteSpace=wrap;html=1;fillColor=#d5e8d4;strokeColor=#82b366;" parent="1" vertex="1">
          <mxGeometry x="610" y="420" width="160" height="40" as="geometry" />
        </mxCell>
        <mxCell id="CPOEglsgOs3hnRmzmHqU-25" value="Branchensoftware" style="rounded=1;whiteSpace=wrap;html=1;fillColor=#d5e8d4;strokeColor=#82b366;" parent="1" vertex="1">
          <mxGeometry x="520" y="480" width="160" height="40" as="geometry" />
        </mxCell>
        <mxCell id="CPOEglsgOs3hnRmzmHqU-26" value="" style="endArrow=none;html=1;entryX=0.25;entryY=1;entryDx=0;entryDy=0;exitX=0.75;exitY=0;exitDx=0;exitDy=0;fillColor=#dae8fc;strokeColor=#6c8ebf;" parent="1" source="CPOEglsgOs3hnRmzmHqU-23" target="CPOEglsgOs3hnRmzmHqU-12" edge="1">
          <mxGeometry width="50" height="50" relative="1" as="geometry">
            <mxPoint x="320" y="390" as="sourcePoint" />
            <mxPoint x="400" y="540" as="targetPoint" />
          </mxGeometry>
        </mxCell>
        <mxCell id="CPOEglsgOs3hnRmzmHqU-27" value="" style="endArrow=none;html=1;entryX=0.5;entryY=1;entryDx=0;entryDy=0;exitX=0.5;exitY=0;exitDx=0;exitDy=0;fillColor=#dae8fc;strokeColor=#6c8ebf;" parent="1" source="CPOEglsgOs3hnRmzmHqU-25" target="CPOEglsgOs3hnRmzmHqU-12" edge="1">
          <mxGeometry width="50" height="50" relative="1" as="geometry">
            <mxPoint x="460" y="690" as="sourcePoint" />
            <mxPoint x="590" y="550" as="targetPoint" />
          </mxGeometry>
        </mxCell>
        <mxCell id="CPOEglsgOs3hnRmzmHqU-28" value="" style="endArrow=none;html=1;entryX=0.75;entryY=1;entryDx=0;entryDy=0;exitX=0.25;exitY=0;exitDx=0;exitDy=0;fillColor=#dae8fc;strokeColor=#6c8ebf;" parent="1" source="CPOEglsgOs3hnRmzmHqU-24" target="CPOEglsgOs3hnRmzmHqU-12" edge="1">
          <mxGeometry width="50" height="50" relative="1" as="geometry">
            <mxPoint x="730" y="660" as="sourcePoint" />
            <mxPoint x="800" y="450" as="targetPoint" />
          </mxGeometry>
        </mxCell>
      </root>
    </mxGraphModel>
  </diagram>
</mxfile>
